<?xml version="1.0" encoding="UTF-8"?>
<svg width="61px" height="13px" viewBox="0 0 61 13" version="1.1" xmlns="http://www.w3.org/2000/svg" xmlns:xlink="http://www.w3.org/1999/xlink">
    <!-- Generator: Sketch 61.2 (89653) - https://sketch.com -->
    <title>sophia-chia-logo</title>
    <desc>Created with Sketch.</desc>
    <g id="Page-1" stroke="none" stroke-width="1" fill="none" fill-rule="evenodd">
        <g id="sophia-chia-logo" transform="translate(0.000000, -1.000000)" fill="#000000" fill-rule="nonzero">
            <g>
                <path d="M0.75,9.5 L0.75,9.16 C0.75,9.06 0.81,9 0.91,9 L1.43,9 C1.53,9 1.59,9.06 1.59,9.16 L1.59,9.45 C1.59,10.35 2.39,11 3.71,11 C4.97,11 5.59,10.41 5.59,9.57 C5.59,8.72 4.94,8.32 3.38,7.68 C1.94,7.1 0.87,6.65 0.87,5.27 C0.87,3.92 1.88,3.15 3.51,3.15 C5.29,3.15 6.36,4.06 6.36,5.43 L6.36,5.66 C6.36,5.76 6.3,5.82 6.2,5.82 L5.68,5.82 C5.58,5.82 5.52,5.76 5.52,5.66 L5.52,5.48 C5.52,4.58 4.8,3.9 3.46,3.9 C2.33,3.9 1.71,4.38 1.71,5.26 C1.71,6.16 2.38,6.45 3.83,7.01 C5.3,7.61 6.43,8.17 6.43,9.54 C6.43,10.85 5.42,11.75 3.64,11.75 C1.87,11.74 0.75,10.85 0.75,9.5" id="Path"></path>
                <path d="M8.04,10.07 C7.92,9.67 7.87,9.17 7.87,8.59 C7.87,8 7.92,7.51 8.03,7.13 C8.34,6.11 9.21,5.48 10.39,5.48 C11.54,5.48 12.42,6.12 12.72,7.12 C12.84,7.53 12.89,8.03 12.89,8.59 C12.89,9.17 12.84,9.67 12.72,10.07 C12.41,11.1 11.53,11.74 10.39,11.74 C9.21,11.74 8.35,11.1 8.04,10.07 M11.92,9.82 C11.99,9.53 12.02,9.09 12.02,8.61 C12.02,8.08 12,7.66 11.92,7.4 C11.74,6.69 11.16,6.22 10.36,6.22 C9.58,6.22 9.02,6.69 8.82,7.4 C8.75,7.66 8.72,8.11 8.72,8.61 C8.72,9.13 8.74,9.56 8.82,9.82 C9,10.54 9.58,11 10.38,11 C11.16,11 11.73,10.54 11.92,9.82" id="Shape"></path>
                <path d="M19.5,8.61 C19.5,9.2 19.48,9.69 19.36,10.1 C19.07,11.09 18.3,11.74 17.14,11.74 C16.5,11.74 15.96,11.48 15.62,11.02 C15.58,10.97 15.55,11 15.55,11.04 L15.55,13.81 C15.55,13.91 15.49,13.97 15.39,13.97 L14.85,13.97 C14.75,13.97 14.69,13.91 14.69,13.81 L14.69,5.73 C14.69,5.63 14.75,5.57 14.85,5.57 L15.39,5.57 C15.48,5.57 15.55,5.63 15.55,5.73 L15.55,6.18 C15.55,6.23 15.59,6.24 15.62,6.2 C15.97,5.73 16.51,5.47 17.14,5.47 C18.28,5.47 19.05,6.11 19.34,7.08 C19.46,7.5 19.5,8 19.5,8.61 M18.64,8.61 C18.64,7.83 18.57,7.48 18.42,7.16 C18.23,6.58 17.71,6.22 17.04,6.22 C16.38,6.22 15.95,6.6 15.76,7.14 C15.62,7.45 15.56,7.81 15.56,8.6 C15.56,9.4 15.63,9.76 15.78,10.09 C15.97,10.62 16.4,10.99 17.04,10.99 C17.69,10.99 18.17,10.63 18.37,10.11 C18.55,9.8 18.64,9.44 18.64,8.61" id="Shape"></path>
                <path d="M25.8,7.56 L25.8,11.48 C25.8,11.58 25.74,11.64 25.64,11.64 L25.1,11.64 C25,11.64 24.94,11.58 24.94,11.48 L24.94,7.73 C24.94,6.84 24.37,6.23 23.51,6.23 C22.69,6.23 22.12,6.73 22.03,7.49 L22.03,11.48 C22.03,11.58 21.97,11.64 21.87,11.64 L21.33,11.64 C21.24,11.64 21.17,11.58 21.17,11.48 L21.17,3.4 C21.17,3.3 21.23,3.24 21.33,3.24 L21.87,3.24 C21.97,3.24 22.03,3.3 22.03,3.4 L22.03,6.17 C22.03,6.22 22.07,6.25 22.09,6.21 C22.44,5.73 23,5.49 23.7,5.49 C24.97,5.49 25.8,6.31 25.8,7.56" id="Path"></path>
                <path d="M28.45,5.57 L27.91,5.57 C27.81,5.57 27.75,5.63 27.75,5.73 L27.75,11.49 C27.75,11.59 27.81,11.65 27.91,11.65 L28.45,11.65 C28.55,11.65 28.61,11.59 28.61,11.49 L28.61,5.73 C28.61,5.63 28.55,5.57 28.45,5.57" id="Path"></path>
                <path d="M34.96,7.49 L34.96,11.48 C34.96,11.58 34.9,11.64 34.8,11.64 L34.26,11.64 C34.16,11.64 34.1,11.58 34.1,11.48 L34.1,11.05 C34.1,11 34.06,10.98 34.03,11.03 C33.59,11.5 32.92,11.74 32.16,11.74 C31.14,11.74 30.18,11.25 30.18,9.99 C30.18,8.79 31.09,8.05 32.65,8.05 L34.04,8.05 C34.08,8.05 34.1,8.03 34.1,7.99 L34.1,7.54 C34.1,6.76 33.69,6.22 32.7,6.22 C31.94,6.22 31.45,6.53 31.32,7.03 C31.3,7.13 31.24,7.16 31.14,7.15 L30.55,7.08 C30.45,7.07 30.39,7.03 30.41,6.95 C30.57,6.07 31.45,5.47 32.69,5.47 C34.16,5.48 34.96,6.31 34.96,7.49 M34.11,9.7 L34.11,8.78 C34.11,8.74 34.09,8.72 34.05,8.72 L32.79,8.72 C31.75,8.72 31.04,9.16 31.04,9.94 C31.04,10.67 31.63,11.01 32.36,11.01 C33.25,11.01 34.11,10.54 34.11,9.7" id="Shape"></path>
                <path d="M39.03,9.09 L39.03,5.79 C39.03,4.21 40.16,3.15 41.85,3.15 C43.54,3.15 44.67,4.18 44.67,5.74 C44.67,5.81 44.61,5.86 44.51,5.87 L43.97,5.91 C43.87,5.92 43.82,5.89 43.82,5.84 L43.82,5.77 C43.82,4.64 43.04,3.9 41.85,3.9 C40.68,3.9 39.88,4.64 39.88,5.77 L39.88,9.13 C39.88,10.26 40.67,11 41.85,11 C43.04,11 43.82,10.26 43.82,9.13 C43.82,9.05 43.87,8.99 43.97,9 L44.51,9.02 C44.61,9.02 44.67,9.04 44.67,9.08 L44.67,9.14 C44.67,10.71 43.54,11.75 41.85,11.75 C40.16,11.75 39.03,10.68 39.03,9.09" id="Path"></path>
                <path d="M51.02,7.56 L51.02,11.48 C51.02,11.58 50.96,11.64 50.86,11.64 L50.32,11.64 C50.22,11.64 50.16,11.58 50.16,11.48 L50.16,7.73 C50.16,6.84 49.58,6.23 48.73,6.23 C47.92,6.23 47.34,6.73 47.26,7.49 L47.26,11.48 C47.26,11.58 47.2,11.64 47.1,11.64 L46.56,11.64 C46.46,11.64 46.4,11.58 46.4,11.48 L46.4,3.4 C46.4,3.3 46.46,3.24 46.56,3.24 L47.1,3.24 C47.2,3.24 47.26,3.3 47.26,3.4 L47.26,6.17 C47.26,6.22 47.3,6.25 47.32,6.21 C47.67,5.73 48.23,5.49 48.93,5.49 C50.19,5.49 51.02,6.31 51.02,7.56" id="Path"></path>
                <path d="M52.98,11.49 L52.98,5.73 C52.98,5.63 53.04,5.57 53.14,5.57 L53.68,5.57 C53.78,5.57 53.84,5.63 53.84,5.73 L53.84,11.49 C53.84,11.59 53.78,11.65 53.68,11.65 L53.14,11.65 C53.04,11.64 52.98,11.58 52.98,11.49" id="Path"></path>
                <path d="M60.19,7.49 L60.19,11.48 C60.19,11.58 60.13,11.64 60.03,11.64 L59.49,11.64 C59.39,11.64 59.33,11.58 59.33,11.48 L59.33,11.05 C59.33,11 59.29,10.98 59.26,11.03 C58.82,11.5 58.15,11.74 57.39,11.74 C56.37,11.74 55.41,11.25 55.41,9.99 C55.41,8.79 56.32,8.05 57.88,8.05 L59.27,8.05 C59.31,8.05 59.33,8.03 59.33,7.99 L59.33,7.54 C59.33,6.76 58.92,6.22 57.93,6.22 C57.17,6.22 56.68,6.53 56.55,7.03 C56.53,7.13 56.47,7.16 56.37,7.15 L55.78,7.08 C55.68,7.07 55.62,7.03 55.64,6.95 C55.8,6.07 56.68,5.47 57.92,5.47 C59.38,5.48 60.19,6.31 60.19,7.49 M59.34,9.7 L59.34,8.78 C59.34,8.74 59.32,8.72 59.28,8.72 L58.02,8.72 C56.98,8.72 56.27,9.16 56.27,9.94 C56.27,10.67 56.86,11.01 57.59,11.01 C58.47,11.01 59.34,10.54 59.34,9.7" id="Shape"></path>
                <path d="M53.19,4.4 C52.34,3.84 54.24,1.3 54.56,0.99 C54.88,0.68 56.35,1.9 56.09,2.3 C55.95,2.54 54.02,4.95 53.19,4.4" id="Path"></path>
                <path d="M27.97,4.4 C27.12,3.84 29.02,1.3 29.34,0.99 C29.66,0.68 31.13,1.9 30.87,2.3 C30.73,2.54 28.8,4.95 27.97,4.4" id="Path"></path>
            </g>
        </g>
    </g>
</svg>